<?xml version="1.0" encoding="utf-8"?>
<!-- Generator: Adobe Illustrator 13.0.0, SVG Export Plug-In . SVG Version: 6.00 Build 14948)  -->
<!DOCTYPE svg PUBLIC "-//W3C//DTD SVG 1.1//EN" "http://www.w3.org/Graphics/SVG/1.1/DTD/svg11.dtd">
<svg version="1.1" id="Layer_1" xmlns="http://www.w3.org/2000/svg" xmlns:xlink="http://www.w3.org/1999/xlink" x="0px" y="0px"
	 width="84.678px" height="84.673px" viewBox="7.661 -16.339 84.678 84.673" enable-background="new 7.661 -16.339 84.678 84.673"
	 xml:space="preserve">
<path fill="#F07324" d="M43.401,29.497c0.013-0.001,0.025-0.002,0.036-0.002c-0.012-0.001-0.023-0.002-0.035-0.002
	C43.402,29.494,43.402,29.495,43.401,29.497z"/>
<path fill="#F07324" d="M35.326,44.984c-0.144-0.244-0.278-0.492-0.413-0.74c-0.001-0.001-0.004-0.001-0.005-0.003
	C35.035,44.479,35.174,44.729,35.326,44.984z"/>
<path fill="#F07324" d="M33.616,23.052l-0.003-0.002c-0.226,0.513-0.438,1.138-0.614,1.721l0.009,0.009
	C33.189,24.197,33.391,23.622,33.616,23.052z"/>
<path fill="#F07324" d="M32.998,24.77c-0.178,0.59-0.32,1.136-0.406,1.478c0.123-0.495,0.265-0.983,0.414-1.469L32.998,24.77z"/>
<path fill="#F07324" d="M32.504,26.613l0.004,0.004c0.023-0.09,0.037-0.178,0.06-0.268C32.528,26.514,32.504,26.613,32.504,26.613z"
	/>
<path fill="#F07324" d="M34.703,43.859c-0.307-0.586-0.584-1.184-0.839-1.785c-0.003-0.001-0.008-0.002-0.009-0.004
	C33.879,42.131,34.178,42.854,34.703,43.859z"/>
<path fill="#F07324" d="M34.908,44.241c0.001,0.002,0.004,0.002,0.007,0.002c-0.054-0.097-0.11-0.19-0.161-0.288
	C34.802,44.049,34.853,44.146,34.908,44.241z"/>
<path fill="#F07324" d="M85.004,25.585L74.3,14.881c-0.924-0.924-1.901-1.76-2.925-2.511c-0.225-0.164-0.454-0.311-0.682-0.467
	c1.399,5.17,1.318,10.659-0.252,15.791l0.877,0.875l5.9,5.902c5.178,5.178,5.176,13.571-0.002,18.748
	c-5.177,5.178-13.572,5.178-18.748,0.002l-6.729-6.729l-1.385-1.386l-1.347-1.348l-0.004-0.004l-2.243-2.242
	c-2.336-2.337-3.615-5.328-3.842-8.385l-0.004-0.001c0.001-0.001,0-0.002,0-0.003c-0.056-0.643-0.06-1.193-0.041-1.665
	c0.045-1.035,0.206-1.636,0.206-1.636c0.002-0.002,0.003,0,0.003-0.002c0,0,0-0.002,0.001-0.002c0.457-2.586,1.68-5.061,3.677-7.056
	c1.942-1.942,4.334-3.155,6.842-3.642c0.07-0.014,0.144-0.022,0.213-0.035c-0.186-2.269-1.139-4.487-2.871-6.22L47.381,9.3
	c-3.095,1.222-5.998,3.076-8.501,5.579c-2.501,2.502-4.36,5.403-5.582,8.497c-0.225,0.57-0.425,1.146-0.608,1.728
	c-0.15,0.485-0.292,0.974-0.415,1.469c-0.009,0.038-0.016,0.067-0.023,0.101c-0.022,0.088-0.038,0.178-0.059,0.268
	c-1.182,5.129-0.73,10.556,1.354,15.457c0.256,0.604,0.532,1.201,0.839,1.787c0.016,0.03,0.033,0.062,0.051,0.094
	c0.05,0.099,0.107,0.193,0.161,0.289c0.134,0.248,0.268,0.498,0.413,0.74c0.002,0.004,0.002,0.006,0.005,0.01
	c1.052,1.777,2.339,3.453,3.865,4.979L49.585,61c9.78,9.779,25.638,9.779,35.417,0C94.783,51.225,94.784,35.366,85.004,25.585z"/>
<path fill="#F07324" d="M14.996,26.416L25.7,37.119c0.924,0.925,1.904,1.761,2.927,2.512c0.223,0.163,0.454,0.312,0.68,0.467
	c-1.401-5.17-1.319-10.658,0.251-15.79l-0.876-0.876l-5.901-5.901c-5.178-5.178-5.177-13.572,0.001-18.75
	c5.178-5.178,13.571-5.177,18.749,0L48.26,5.51l1.384,1.384l1.347,1.347l0.005,0.005l2.242,2.242
	c2.336,2.336,3.613,5.328,3.842,8.384h0.003c0,0.001,0,0.002,0,0.003c0.058,0.642,0.062,1.194,0.041,1.665
	c-0.044,1.035-0.205,1.636-0.205,1.636c-0.001,0.001-0.004,0-0.004,0.001c0,0,0,0.002-0.001,0.003
	c-0.455,2.585-1.68,5.061-3.676,7.056c-1.941,1.941-4.335,3.154-6.841,3.641c-0.073,0.016-0.144,0.021-0.214,0.035
	c0.185,2.27,1.138,4.488,2.87,6.22l3.566,3.566c3.095-1.224,5.997-3.078,8.5-5.581c2.503-2.504,4.359-5.401,5.583-8.496
	c0.224-0.569,0.425-1.146,0.606-1.729c0.15-0.486,0.295-0.976,0.414-1.47c0.01-0.038,0.018-0.068,0.024-0.101
	c0.022-0.088,0.039-0.178,0.06-0.266c1.182-5.13,0.729-10.558-1.354-15.458c-0.258-0.604-0.533-1.2-0.838-1.786
	c-0.018-0.032-0.034-0.063-0.051-0.096c-0.053-0.097-0.108-0.192-0.162-0.288c-0.135-0.248-0.269-0.497-0.414-0.741
	c-0.002-0.003-0.002-0.005-0.004-0.008c-1.051-1.778-2.338-3.453-3.865-4.98L50.415-9.003c-9.781-9.781-25.637-9.781-35.417,0
	C5.216,0.778,5.215,16.635,14.996,26.416z"/>
<path fill="#F07324" d="M35.332,44.994c-0.002-0.004-0.003-0.008-0.005-0.01C35.329,44.986,35.33,44.99,35.332,44.994z"/>
<path fill="#F07324" d="M34.703,43.859c0.016,0.031,0.033,0.062,0.05,0.096C34.736,43.925,34.72,43.893,34.703,43.859z"/>
<path fill="#F07324" d="M43.399,29.497c0,0-0.162,0.603-0.207,1.637c0.007-0.001,0.016-0.001,0.021,0.001
	c0.027-0.549,0.093-1.096,0.188-1.638C43.401,29.497,43.401,29.497,43.399,29.497z"/>
<path fill="#F07324" d="M32.568,26.348c0.008-0.033,0.015-0.062,0.024-0.1C32.584,26.282,32.577,26.314,32.568,26.348z"/>
<path fill="#F07324" d="M43.213,31.135c-0.005-0.002-0.014-0.002-0.021-0.001c-0.021,0.472-0.017,1.021,0.041,1.664
	c0.002,0,0.003,0,0.003,0C43.196,32.244,43.187,31.688,43.213,31.135z"/>
<path fill="#F07324" d="M43.236,32.802c0.003-0.001,0.007-0.001,0.019-0.002c-0.005,0-0.013-0.002-0.019-0.002
	C43.237,32.798,43.237,32.8,43.236,32.802z"/>
<rect x="43.232" y="32.798" fill="#F07324" width="0.004" height="0.004"/>
</svg>
