<svg enable-background="new 7.661 -16.339 84.678 84.673" height="84.673" viewBox="7.661 -16.339 84.678 84.673" width="84.678" xmlns="https://www.w3.org/2000/svg"><g fill="#f07324"><path d="m43.401 29.497c.013-.001.025-.002.036-.002-.012-.001-.023-.002-.035-.002 0 .001 0 .002-.001.004z"/><path d="m35.326 44.984c-.144-.244-.278-.492-.413-.74-.001-.001-.004-.001-.005-.003.127.238.266.488.418.743z"/><path d="m33.616 23.052-.003-.002c-.226.513-.438 1.138-.614 1.721l.009.009c.181-.583.383-1.158.608-1.728z"/><path d="m32.998 24.77c-.178.59-.32 1.136-.406 1.478.123-.495.265-.983.414-1.469z"/><path d="m32.504 26.613.004.004c.023-.09.037-.178.06-.268-.04.165-.064.264-.064.264z"/><path d="m34.703 43.859c-.307-.586-.584-1.184-.839-1.785-.003-.001-.008-.002-.009-.004.024.061.323.784.848 1.789z"/><path d="m34.908 44.241c.001.002.004.002.007.002-.054-.097-.11-.19-.161-.288.048.094.099.191.154.286z"/><path d="m85.004 25.585-10.704-10.704c-.924-.924-1.901-1.76-2.925-2.511-.225-.164-.454-.311-.682-.467 1.399 5.17 1.318 10.659-.252 15.791l.877.875 5.9 5.902c5.178 5.178 5.176 13.571-.002 18.748-5.177 5.178-13.572 5.178-18.748.002l-6.729-6.729-1.385-1.386-1.347-1.348-.004-.004-2.243-2.242c-2.336-2.337-3.615-5.328-3.842-8.385l-.004-.001c.001-.001 0-.002 0-.003-.056-.643-.06-1.193-.041-1.665.045-1.035.206-1.636.206-1.636.002-.002.003 0 .003-.002 0 0 0-.002.001-.002.457-2.586 1.68-5.061 3.677-7.056 1.942-1.942 4.334-3.155 6.842-3.642.07-.014.144-.022.213-.035-.186-2.269-1.139-4.487-2.871-6.22l-3.563-3.565c-3.095 1.222-5.998 3.076-8.501 5.579-2.501 2.502-4.36 5.403-5.582 8.497-.225.57-.425 1.146-.608 1.728-.15.485-.292.974-.415 1.469-.009.038-.016.067-.023.101-.022.088-.038.178-.059.268-1.182 5.129-.73 10.556 1.354 15.457.256.604.532 1.201.839 1.787.016.03.033.062.051.094.05.099.107.193.161.289.134.248.268.498.413.74.002.004.002.006.005.01 1.052 1.777 2.339 3.453 3.865 4.979l10.704 10.702c9.78 9.779 25.638 9.779 35.417 0 9.781-9.775 9.782-25.634.002-35.415z"/><path d="m14.996 26.416 10.704 10.703c.924.925 1.904 1.761 2.927 2.512.223.163.454.312.68.467-1.401-5.17-1.319-10.658.251-15.79l-.876-.876-5.901-5.901c-5.178-5.178-5.177-13.572.001-18.75s13.571-5.177 18.749 0l6.729 6.729 1.384 1.384 1.347 1.347.005.005 2.242 2.242c2.336 2.336 3.613 5.328 3.842 8.384h.003v.003c.058.642.062 1.194.041 1.665-.044 1.035-.205 1.636-.205 1.636-.001.001-.004 0-.004.001 0 0 0 .002-.001.003-.455 2.585-1.68 5.061-3.676 7.056-1.941 1.941-4.335 3.154-6.841 3.641-.073.016-.144.021-.214.035.185 2.27 1.138 4.488 2.87 6.22l3.566 3.566c3.095-1.224 5.997-3.078 8.5-5.581 2.503-2.504 4.359-5.401 5.583-8.496.224-.569.425-1.146.606-1.729.15-.486.295-.976.414-1.47.01-.038.018-.068.024-.101.022-.088.039-.178.06-.266 1.182-5.13.729-10.558-1.354-15.458-.258-.604-.533-1.2-.838-1.786-.018-.032-.034-.063-.051-.096-.053-.097-.108-.192-.162-.288-.135-.248-.269-.497-.414-.741-.002-.003-.002-.005-.004-.008-1.051-1.778-2.338-3.453-3.865-4.98l-10.703-10.701c-9.781-9.781-25.637-9.781-35.417 0-9.782 9.781-9.783 25.638-.002 35.419z"/><path d="m35.332 44.994c-.002-.004-.003-.008-.005-.01.002.002.003.006.005.01z"/><path d="m34.703 43.859c.016.031.033.062.05.096-.017-.03-.033-.062-.05-.096z"/><path d="m43.399 29.497s-.162.603-.207 1.637c.007-.001.016-.001.021.001.027-.549.093-1.096.188-1.638 0 0 0 0-.002 0z"/><path d="m32.568 26.348c.008-.033.015-.062.024-.1-.008.034-.015.066-.024.1z"/><path d="m43.213 31.135c-.005-.002-.014-.002-.021-.001-.021.472-.017 1.021.041 1.664h.003c-.04-.554-.049-1.11-.023-1.663z"/><path d="m43.236 32.802c.003-.001.007-.001.019-.002-.005 0-.013-.002-.019-.002.001 0 .001.002 0 .004z"/><path d="m43.232 32.798h.004v.004h-.004z"/></g></svg>